<?xml version="1.0" ?><svg height="42px" version="1.1" viewBox="0 0 41 42" width="41px" xmlns="http://www.w3.org/2000/svg" xmlns:xlink="http://www.w3.org/1999/xlink"><title/><desc/><defs/><g fill="none" fill-rule="evenodd" id="Icons" stroke="none" stroke-width="1"><g fill="#000000" id="XXX-Artboard-1" transform="translate(-258.000000, -39.000000)"><g id="Equalizer" transform="translate(258.000000, 39.000000)"><rect height="6" id="Rectangle-1" rx="3" transform="translate(6.500000, 21.000000) scale(1, -1) rotate(-90.000000) translate(-6.500000, -21.000000) " width="41" x="-14" y="18"/><rect height="6" id="Rectangle-1" rx="3" transform="translate(20.500000, 20.000000) scale(1, -1) translate(-20.500000, -20.000000) " width="13" x="14" y="17"/><rect height="6" id="Rectangle-1" rx="3" transform="translate(34.500000, 11.000000) scale(1, -1) translate(-34.500000, -11.000000) " width="13" x="28" y="8"/><rect height="6" id="Rectangle-1" rx="3" transform="translate(6.500000, 31.000000) scale(1, -1) translate(-6.500000, -31.000000) " width="13" x="0" y="28"/><rect height="6" id="Rectangle-1" rx="3" transform="translate(20.500000, 21.000000) scale(1, -1) rotate(-90.000000) translate(-20.500000, -21.000000) " width="41" x="0" y="18"/><rect height="6" id="Rectangle-1" rx="3" transform="translate(34.500000, 21.000000) scale(-1, -1) rotate(-90.000000) translate(-34.500000, -21.000000) " width="41" x="14" y="18"/></g></g></g></svg>