<svg viewBox="0 0 41 42" xmlns="http://www.w3.org/2000/svg"><g fill="#ffffff" fill-rule="evenodd" class="fill-000000"><rect height="6" rx="3" transform="matrix(0 1 1 0 -14.5 14.5)" width="41" x="-14" y="18"></rect><rect height="6" rx="3" transform="matrix(1 0 0 -1 0 40)" width="13" x="14" y="17"></rect><rect height="6" rx="3" transform="matrix(1 0 0 -1 0 22)" width="13" x="28" y="8"></rect><rect height="6" rx="3" transform="matrix(1 0 0 -1 0 62)" width="13" y="28"></rect><rect height="6" rx="3" transform="matrix(0 1 1 0 -.5 .5)" width="41" y="18"></rect><rect height="6" rx="3" transform="rotate(90 34.5 21)" width="41" x="14" y="18"></rect></g></svg>