<?xml version="1.0" ?><svg enable-background="new 0 0 48 48" id="Flat_Gradient" version="1.1" viewBox="0 0 48 48" xml:space="preserve" xmlns="http://www.w3.org/2000/svg" xmlns:xlink="http://www.w3.org/1999/xlink"><linearGradient gradientUnits="userSpaceOnUse" id="SVGID_1_" x1="24" x2="24" y1="1.21829" y2="45.69165"><stop offset="0" style="stop-color:#F0FFE8"/><stop offset="1" style="stop-color:#D3FFC8"/></linearGradient><path d="M46.40625,10.71731c-0.2793-4.92236-4.20166-8.84473-9.12402-9.12402  c-8.81348-0.5-17.75146-0.5-26.56396,0c-4.92236,0.2793-8.84473,4.20166-9.12451,9.12402c-0.5,8.81348-0.5,17.75098,0,26.56445  c0.27979,4.92236,4.20215,8.84473,9.12451,9.12402c8.83481,0.50129,17.7298,0.50117,26.56396,0  c4.92236-0.2793,8.84473-4.20166,9.12402-9.12402C46.90625,28.46829,46.90625,19.53079,46.40625,10.71731z" fill="url(#SVGID_1_)"/><g><g><linearGradient gradientUnits="userSpaceOnUse" id="SVGID_2_" x1="23.5" x2="23.5" y1="9" y2="38.71273"><stop offset="0" style="stop-color:#1DC118"/><stop offset="1" style="stop-color:#B6F38B"/></linearGradient><path d="M28,19.25c-0.41406,0-0.75-0.33594-0.75-0.75c0-2.06787-1.68213-3.75-3.75-3.75    s-3.75,1.68213-3.75,3.75c0,0.41406-0.33594,0.75-0.75,0.75s-0.75-0.33594-0.75-0.75c0-2.89502,2.35498-5.25,5.25-5.25    s5.25,2.35498,5.25,5.25C28.75,18.91406,28.41406,19.25,28,19.25z" fill="url(#SVGID_2_)"/></g><g><linearGradient gradientUnits="userSpaceOnUse" id="SVGID_3_" x1="23" x2="23" y1="9" y2="38.71273"><stop offset="0" style="stop-color:#1DC118"/><stop offset="1" style="stop-color:#B6F38B"/></linearGradient><path d="M32.75,12v8.25c0,0.41421-0.33578,0.75-0.75,0.75l0,0c-0.41421,0-0.75-0.33579-0.75-0.75V12    c0-0.69036-0.55964-1.25-1.25-1.25H16c-0.69036,0-1.25,0.55964-1.25,1.25l-0.00001,24c0,0.67413,0.53392,1.29025,1.20693,1.25126    C16.38594,37.2264,16.75,37.57575,16.75,38c0,0.40997-0.33997,0.75-0.75,0.75c-1.51996,0-2.75-1.22998-2.75-2.75V12    c0-1.51878,1.23122-2.75,2.75-2.75h14C31.51878,9.25,32.75,10.48122,32.75,12z" fill="url(#SVGID_3_)"/></g><linearGradient gradientUnits="userSpaceOnUse" id="SVGID_4_" x1="26.0266" x2="26.0266" y1="9" y2="38.71273"><stop offset="0" style="stop-color:#1DC118"/><stop offset="1" style="stop-color:#B6F38B"/></linearGradient><path d="M34.7766,26.5v3.77002c0,1.23999-0.22998,2.45996-0.70001,3.62l-1.34998,3.39001   C32.60661,37.56,32.33659,37.75,32.0266,37.75h-12c-0.31,0-0.57996-0.19-0.70001-0.46997L18.44664,35.06   C17.66661,33.13,17.2766,31.09003,17.2766,29c0-1.79999,1.01001-3.35999,2.5-4.15997V26c0,0.97998,0.63,1.81,1.5,2.12V18.5   c0-1.23999,1.01001-2.25,2.25-2.25s2.25,1.01001,2.25,2.25v2.89001c0.23999-0.09003,0.48999-0.14001,0.75-0.14001   c0.27002,0,0.52002,0.04999,0.75,0.14001c0.54999,0.19,0.98999,0.58997,1.25,1.09998c0.29999-0.14996,0.64001-0.23999,1-0.23999   c1.20001,0,2.17999,0.95001,2.23999,2.14001C32.00664,24.31,32.25664,24.25,32.5266,24.25   C33.76659,24.25,34.7766,25.26001,34.7766,26.5z" fill="url(#SVGID_4_)"/></g></svg>