<?xml version="1.0" ?><svg id="Layer_2" style="enable-background:new 0 0 60 60;" version="1.1" viewBox="0 0 60 60" xml:space="preserve" xmlns="http://www.w3.org/2000/svg" xmlns:xlink="http://www.w3.org/1999/xlink"><style type="text/css">
	.st0{fill:#544F55;}
	.st1{fill:#BB7A5B;}
	.st2{fill:#D8AC8B;}
	.st3{fill:#C4E0FF;}
	.st4{fill:#F9D403;}
	.st5{fill:#E7EEF9;}
	.st6{fill:#2BA4F5;}
	.st7{fill:#E3334F;}
	.st8{fill:#F4D2B1;}
	.st9{fill:#52C392;}
</style><g><g><g><g><path class="st8" d="M50.86,54H9.14C7.41,54,6,52.59,6,50.86V9.14C6,7.41,7.41,6,9.14,6h41.72C52.59,6,54,7.41,54,9.14v41.72      C54,52.59,52.59,54,50.86,54z"/></g></g><g><g><path d="M50.86,55H9.14C6.86,55,5,53.14,5,50.86V9.14C5,6.86,6.86,5,9.14,5h41.72C53.14,5,55,6.86,55,9.14v41.72      C55,53.14,53.14,55,50.86,55z M9.14,7C7.96,7,7,7.96,7,9.14v41.72C7,52.04,7.96,53,9.14,53h41.72c1.18,0,2.14-0.96,2.14-2.14      V9.14C53,7.96,52.04,7,50.86,7H9.14z"/></g></g></g><g><g><g><path d="M17.41,47.82c-0.55,0-1-0.45-1-1v-4.51c0-0.55,0.45-1,1-1s1,0.45,1,1v4.51C18.41,47.37,17.96,47.82,17.41,47.82z"/></g></g></g><g><g><g><path d="M17.41,39.05c-0.55,0-1-0.45-1-1V13.18c0-0.55,0.45-1,1-1s1,0.45,1,1v24.87C18.41,38.6,17.96,39.05,17.41,39.05z"/></g></g></g><g><g><g><path class="st4" d="M19.36,42.31h-3.9c-1.17,0-2.13-0.95-2.13-2.13v0c0-1.17,0.95-2.13,2.13-2.13h3.9      c1.17,0,2.13,0.95,2.13,2.13v0C21.48,41.36,20.53,42.31,19.36,42.31z"/></g></g><g><g><path d="M19.36,43.31h-3.9c-1.72,0-3.13-1.4-3.13-3.13c0-1.72,1.4-3.13,3.13-3.13h3.9c1.72,0,3.13,1.4,3.13,3.13      C22.48,41.91,21.08,43.31,19.36,43.31z M15.46,39.06c-0.62,0-1.13,0.5-1.13,1.13c0,0.62,0.5,1.13,1.13,1.13h3.9      c0.62,0,1.13-0.5,1.13-1.13c0-0.62-0.5-1.13-1.13-1.13H15.46z"/></g></g></g><g><g><g><path d="M30,47.82c-0.55,0-1-0.45-1-1V28.04c0-0.55,0.45-1,1-1s1,0.45,1,1v18.79C31,47.37,30.55,47.82,30,47.82z"/></g></g></g><g><g><g><path d="M30,24.78c-0.55,0-1-0.45-1-1v-10.6c0-0.55,0.45-1,1-1s1,0.45,1,1v10.6C31,24.33,30.55,24.78,30,24.78z"/></g></g></g><g><g><g><path class="st6" d="M31.95,28.03h-3.9c-1.17,0-2.13-0.95-2.13-2.13v0c0-1.17,0.95-2.13,2.13-2.13h3.9      c1.17,0,2.13,0.95,2.13,2.13v0C34.08,27.08,33.13,28.03,31.95,28.03z"/></g></g><g><g><path d="M31.95,29.03h-3.9c-1.72,0-3.13-1.4-3.13-3.13c0-1.72,1.4-3.13,3.13-3.13h3.9c1.72,0,3.13,1.4,3.13,3.13      C35.08,27.63,33.68,29.03,31.95,29.03z M28.05,24.78c-0.62,0-1.13,0.5-1.13,1.13c0,0.62,0.5,1.13,1.13,1.13h3.9      c0.62,0,1.13-0.5,1.13-1.13c0-0.62-0.5-1.13-1.13-1.13H28.05z"/></g></g></g><g><g><g><path d="M42.59,47.82c-0.55,0-1-0.45-1-1v-9.39c0-0.55,0.45-1,1-1s1,0.45,1,1v9.39C43.59,47.37,43.15,47.82,42.59,47.82z"/></g></g></g><g><g><g><path d="M42.59,34.17c-0.55,0-1-0.45-1-1V13.18c0-0.55,0.45-1,1-1s1,0.45,1,1v19.99C43.59,33.73,43.15,34.17,42.59,34.17z"/></g></g></g><g><g><g><path class="st7" d="M44.55,37.43h-3.9c-1.17,0-2.13-0.95-2.13-2.13v0c0-1.17,0.95-2.13,2.13-2.13h3.9      c1.17,0,2.13,0.95,2.13,2.13v0C46.67,36.48,45.72,37.43,44.55,37.43z"/></g></g><g><g><path d="M44.54,38.43h-3.9c-1.72,0-3.13-1.4-3.13-3.13c0-1.72,1.4-3.13,3.13-3.13h3.9c1.72,0,3.13,1.4,3.13,3.13      C47.67,37.03,46.27,38.43,44.54,38.43z M40.64,34.18c-0.62,0-1.13,0.5-1.13,1.13c0,0.62,0.5,1.13,1.13,1.13h3.9      c0.62,0,1.13-0.5,1.13-1.13c0-0.62-0.5-1.13-1.13-1.13H40.64z"/></g></g></g></g></svg>